<svg xmlns="http://www.w3.org/2000/svg" xmlns:xlink="http://www.w3.org/1999/xlink" width="50" zoomAndPan="magnify" viewBox="0 0 37.5 37.499999" height="50" preserveAspectRatio="xMidYMid meet" version="1.0"><defs><clipPath id="b543c325f3"><path d="M 0 8.488281 L 37 8.488281 L 37 28.472656 L 0 28.472656 Z M 0 8.488281 " clip-rule="nonzero"/></clipPath></defs><g clip-path="url(#b543c325f3)"><path fill="#ffffff" d="M 18.503906 8.488281 C 13.5 8.488281 8.96875 9.535156 5.617188 11.285156 C 2.269531 13.03125 0.015625 15.550781 0.015625 18.503906 C 0.015625 21.457031 2.269531 23.972656 5.617188 25.722656 C 8.96875 27.472656 13.5 28.519531 18.503906 28.519531 C 23.503906 28.519531 28.039062 27.472656 31.390625 25.722656 C 34.738281 23.972656 36.992188 21.457031 36.992188 18.503906 C 36.992188 15.550781 34.738281 13.03125 31.390625 11.285156 C 28.039062 9.535156 23.503906 8.488281 18.503906 8.488281 Z M 18.503906 10.027344 C 23.289062 10.027344 27.613281 11.050781 30.675781 12.648438 C 33.738281 14.25 35.453125 16.347656 35.453125 18.503906 C 35.453125 20.65625 33.738281 22.757812 30.675781 24.355469 C 27.613281 25.957031 23.289062 26.976562 18.503906 26.976562 C 13.71875 26.976562 9.394531 25.957031 6.332031 24.355469 C 3.265625 22.757812 1.554688 20.65625 1.554688 18.503906 C 1.554688 16.347656 3.265625 14.25 6.332031 12.648438 C 9.394531 11.050781 13.71875 10.027344 18.503906 10.027344 Z M 16.582031 11.570312 L 14.652344 20.8125 L 16.671875 20.8125 L 17.648438 16.191406 L 19.265625 16.191406 C 19.777344 16.191406 20.121094 16.277344 20.28125 16.449219 C 20.4375 16.621094 20.472656 16.945312 20.382812 17.410156 L 19.644531 20.8125 L 21.695312 20.8125 L 22.496094 17.132812 C 22.667969 16.253906 22.539062 15.605469 22.113281 15.210938 C 21.675781 14.8125 20.90625 14.652344 19.765625 14.652344 L 17.960938 14.652344 L 18.601562 11.570312 Z M 7.71875 14.652344 L 6.15625 23.125 L 8.195312 23.125 L 8.601562 20.8125 L 9.871094 20.8125 C 12.523438 20.8125 13.96875 20.199219 14.507812 17.921875 C 14.96875 15.964844 13.785156 14.652344 11.824219 14.652344 Z M 23.894531 14.652344 L 22.335938 23.125 L 24.371094 23.125 L 24.777344 20.8125 L 26.046875 20.8125 C 28.703125 20.8125 30.144531 20.199219 30.683594 17.921875 C 31.148438 15.964844 29.960938 14.652344 28.003906 14.652344 Z M 9.46875 16.191406 L 11.054688 16.191406 C 12.375 16.191406 12.648438 16.785156 12.582031 17.445312 C 12.402344 19.144531 11.34375 19.273438 10.207031 19.273438 L 8.886719 19.273438 Z M 25.648438 16.191406 L 27.234375 16.191406 C 28.550781 16.191406 28.828125 16.785156 28.757812 17.445312 C 28.582031 19.144531 27.523438 19.273438 26.382812 19.273438 L 25.0625 19.273438 Z M 25.648438 16.191406 " fill-opacity="1" fill-rule="nonzero"/></g></svg>